<?xml version="1.0" standalone="no"?>
<!DOCTYPE svg PUBLIC "-//W3C//DTD SVG 20010904//EN"
 "http://www.w3.org/TR/2001/REC-SVG-20010904/DTD/svg10.dtd">
<svg version="1.0" xmlns="http://www.w3.org/2000/svg"
 width="512.000000pt" height="512.000000pt" viewBox="0 0 512.000000 512.000000"
 preserveAspectRatio="xMidYMid meet">
<metadata>
Created by potrace 1.11, written by Peter Selinger 2001-2013
</metadata>
<g transform="translate(0.000000,512.000000) scale(0.100000,-0.100000)"
fill="#000000" stroke="none">
<path d="M2229 5115 c-2 -1 -29 -6 -59 -9 -227 -26 -481 -109 -680 -223 -56
-32 -205 -130 -222 -146 -7 -7 -35 -29 -61 -51 -126 -101 -290 -292 -385 -448
-139 -227 -233 -504 -259 -763 -13 -132 -6 -406 12 -490 3 -11 7 -31 9 -45 49
-285 226 -653 411 -856 40 -44 571 -678 573 -684 2 -5 -7 -11 -20 -14 -564
-115 -916 -322 -981 -576 -16 -62 -15 -98 7 -173 83 -285 573 -521 1251 -602
28 -3 64 -8 80 -10 103 -13 252 -20 480 -20 233 0 468 10 484 19 3 2 38 7 76
10 39 3 81 8 95 11 14 3 39 7 55 9 84 12 212 38 315 65 446 116 729 298 800
516 68 206 -88 422 -413 575 -157 74 -199 79 -237 29 -15 -19 -16 -19 -100 5
-72 21 -127 35 -200 51 -8 2 -36 7 -62 11 -27 3 -48 10 -48 14 0 5 189 233
323 390 12 14 44 52 72 85 27 33 52 62 55 65 3 3 50 59 105 125 55 66 102 122
106 125 13 10 136 186 161 230 112 196 177 364 217 562 27 129 30 156 37 293
l6 120 -27 28 c-15 15 -35 27 -44 27 -14 0 -19 20 -29 113 -20 186 -78 386
-163 560 -35 72 -36 77 -16 71 45 -13 86 -36 126 -71 77 -66 157 -50 168 33 5
38 3 42 -49 90 -96 86 -237 141 -358 139 -19 0 -35 14 -67 55 -23 30 -69 84
-102 120 -33 36 -61 68 -61 71 0 10 152 32 218 32 212 1 408 -75 572 -222 25
-23 51 -41 58 -42 6 -1 18 -2 25 -3 44 -7 96 60 81 106 -18 58 -192 188 -334
249 -215 92 -450 108 -665 45 -44 -13 -87 -26 -95 -30 -9 -4 -53 19 -115 59
-99 65 -259 148 -309 161 -14 3 -29 10 -32 15 -3 5 -13 9 -22 9 -13 0 -17 9
-18 36 -1 65 -37 82 -254 123 -30 6 -68 13 -85 17 -32 6 -400 15 -406 9z"/>
</g>
</svg>
